<svg width="1000" height="600" viewBox="0 0 1000 600" fill="none" xmlns="http://www.w3.org/2000/svg">
<circle cx="292.5" cy="411.5" r="45.5" fill="url(#paint0_linear_8_207)"/>
<circle cx="166.5" cy="465.5" r="45.5" fill="url(#paint1_linear_8_207)"/>
<circle cx="247" cy="523" r="20" fill="url(#paint2_linear_8_207)"/>
<g filter="url(#filter0_f_8_207)">
<rect x="925" y="440" width="8" height="9" rx="4" fill="#C4C4C4" fill-opacity="0.2"/>
<ellipse cx="929" cy="444.5" rx="4" ry="4.5" fill="#C4C4C4"/>
<rect x="925" y="440" width="8" height="9" rx="4" fill="#C4C4C4" fill-opacity="0.2"/>
<ellipse cx="929" cy="444.5" rx="4" ry="4.5" fill="#C4C4C4"/>
<rect x="906" y="440" width="8" height="9" rx="4" fill="#C4C4C4" fill-opacity="0.2"/>
<ellipse cx="910" cy="444.5" rx="4" ry="4.5" fill="#C4C4C4"/>
<rect x="887" y="440" width="8" height="9" rx="4" fill="#C4C4C4" fill-opacity="0.2"/>
<ellipse cx="891" cy="444.5" rx="4" ry="4.5" fill="#C4C4C4"/>
<rect x="925" y="459" width="8" height="9" rx="4" fill="#C4C4C4" fill-opacity="0.2"/>
<ellipse cx="929" cy="463.5" rx="4" ry="4.5" fill="#C4C4C4"/>
<rect x="925" y="459" width="8" height="9" rx="4" fill="#C4C4C4" fill-opacity="0.2"/>
<ellipse cx="929" cy="463.5" rx="4" ry="4.5" fill="#C4C4C4"/>
<rect x="906" y="459" width="8" height="9" rx="4" fill="#C4C4C4" fill-opacity="0.2"/>
<ellipse cx="910" cy="463.5" rx="4" ry="4.5" fill="#C4C4C4"/>
<rect x="887" y="459" width="8" height="9" rx="4" fill="#C4C4C4" fill-opacity="0.2"/>
<ellipse cx="891" cy="463.5" rx="4" ry="4.5" fill="#C4C4C4"/>
<rect x="925" y="477" width="8" height="9" rx="4" fill="#C4C4C4" fill-opacity="0.2"/>
<ellipse cx="929" cy="481.5" rx="4" ry="4.5" fill="#C4C4C4"/>
<rect x="925" y="477" width="8" height="9" rx="4" fill="#C4C4C4" fill-opacity="0.2"/>
<ellipse cx="929" cy="481.5" rx="4" ry="4.5" fill="#C4C4C4"/>
<rect x="906" y="477" width="8" height="9" rx="4" fill="#C4C4C4" fill-opacity="0.2"/>
<ellipse cx="910" cy="481.5" rx="4" ry="4.5" fill="#C4C4C4"/>
<rect x="887" y="477" width="8" height="9" rx="4" fill="#C4C4C4" fill-opacity="0.2"/>
<ellipse cx="891" cy="481.5" rx="4" ry="4.5" fill="#C4C4C4"/>
<rect x="925" y="496" width="8" height="9" rx="4" fill="#C4C4C4" fill-opacity="0.2"/>
<ellipse cx="929" cy="500.5" rx="4" ry="4.5" fill="#C4C4C4"/>
<rect x="925" y="496" width="8" height="9" rx="4" fill="#C4C4C4" fill-opacity="0.2"/>
<ellipse cx="929" cy="500.5" rx="4" ry="4.5" fill="#C4C4C4"/>
<rect x="906" y="496" width="8" height="9" rx="4" fill="#C4C4C4"/>
<ellipse cx="910" cy="500.5" rx="4" ry="4.5" fill="#C4C4C4" fill-opacity="0.5"/>
<rect x="887" y="496" width="8" height="9" rx="4" fill="#C4C4C4" fill-opacity="0.2"/>
<ellipse cx="891" cy="500.5" rx="4" ry="4.5" fill="#C4C4C4"/>
<rect x="925" y="515" width="8" height="9" rx="4" fill="#C4C4C4" fill-opacity="0.2"/>
<ellipse cx="929" cy="519.5" rx="4" ry="4.5" fill="#C4C4C4"/>
<rect x="925" y="515" width="8" height="9" rx="4" fill="#C4C4C4" fill-opacity="0.2"/>
<ellipse cx="929" cy="519.5" rx="4" ry="4.5" fill="#C4C4C4"/>
<rect x="906" y="515" width="8" height="9" rx="4" fill="#C4C4C4"/>
<ellipse cx="910" cy="519.5" rx="4" ry="4.5" fill="#C4C4C4"/>
<rect x="887" y="515" width="8" height="9" rx="4" fill="#C4C4C4" fill-opacity="0.2"/>
<ellipse cx="891" cy="519.5" rx="4" ry="4.5" fill="#C4C4C4"/>
<rect x="925" y="534" width="8" height="9" rx="4" fill="#C4C4C4" fill-opacity="0.2"/>
<ellipse cx="929" cy="538.5" rx="4" ry="4.5" fill="#C4C4C4"/>
<rect x="925" y="534" width="8" height="9" rx="4" fill="#C4C4C4" fill-opacity="0.2"/>
<ellipse cx="929" cy="538.5" rx="4" ry="4.5" fill="#C4C4C4"/>
<rect x="906" y="534" width="8" height="9" rx="4" fill="#C4C4C4" fill-opacity="0.2"/>
<ellipse cx="910" cy="538.5" rx="4" ry="4.5" fill="#C4C4C4"/>
<rect x="887" y="534" width="8" height="9" rx="4" fill="#C4C4C4" fill-opacity="0.2"/>
<ellipse cx="891" cy="538.5" rx="4" ry="4.5" fill="#C4C4C4"/>
</g>
<path d="M0 156V0H170C200.797 0.292651 199.5 26.5 199.5 31.5C199.5 36.5 183.981 55.728 199.5 77.5C211.12 96.1956 205 115.5 196 123.5C187 131.5 168.715 130.465 170 152C165.559 171.166 155.051 182.855 137 172C118.023 149.548 104.115 142.985 85.5 164.5C76.7037 175.702 70.0974 178.427 53 172L27 152C12.3885 144.604 4.98819 146.941 0 156Z" fill="url(#paint3_linear_8_207)"/>
<defs>
<filter id="filter0_f_8_207" x="885" y="432" width="50" height="113" filterUnits="userSpaceOnUse" color-interpolation-filters="sRGB">
<feFlood flood-opacity="0" result="BackgroundImageFix"/>
<feBlend mode="normal" in="SourceGraphic" in2="BackgroundImageFix" result="shape"/>
<feGaussianBlur stdDeviation="1" result="effect1_foregroundBlur_8_207"/>
</filter>
<linearGradient id="paint0_linear_8_207" x1="292.5" y1="366" x2="292.5" y2="457" gradientUnits="userSpaceOnUse">
<stop stop-color="#313638" stop-opacity="0"/>
<stop offset="1" stop-color="#C4C4C4"/>
</linearGradient>
<linearGradient id="paint1_linear_8_207" x1="166.5" y1="420" x2="166.5" y2="511" gradientUnits="userSpaceOnUse">
<stop stop-color="#313638" stop-opacity="0"/>
<stop offset="1" stop-color="#C4C4C4"/>
</linearGradient>
<linearGradient id="paint2_linear_8_207" x1="247" y1="503" x2="247" y2="543" gradientUnits="userSpaceOnUse">
<stop stop-color="#C4C4C4" stop-opacity="0"/>
<stop offset="0.0001" stop-color="#313638" stop-opacity="0"/>
<stop offset="1" stop-color="#C4C4C4"/>
</linearGradient>
<linearGradient id="paint3_linear_8_207" x1="102.941" y1="0" x2="102.941" y2="176.161" gradientUnits="userSpaceOnUse">
<stop stop-color="#FFEA11" stop-opacity="0"/>
<stop offset="1" stop-color="#FFEA11"/>
</linearGradient>
</defs>
</svg>
