<svg width="1000" height="600" viewBox="0 0 1000 600" fill="none" xmlns="http://www.w3.org/2000/svg">
<circle cx="292.5" cy="411.5" r="45.5" fill="url(#paint0_linear_8_208)"/>
<circle cx="166.5" cy="465.5" r="45.5" fill="url(#paint1_linear_8_208)"/>
<circle cx="247" cy="523" r="20" fill="url(#paint2_linear_8_208)"/>
<g filter="url(#filter0_f_8_208)">
<rect x="106" y="59" width="8" height="9" rx="4" fill="#C4C4C4" fill-opacity="0.2"/>
<ellipse cx="110" cy="63.5" rx="4" ry="4.5" fill="#C4C4C4"/>
<rect x="106" y="59" width="8" height="9" rx="4" fill="#C4C4C4" fill-opacity="0.2"/>
<ellipse cx="110" cy="63.5" rx="4" ry="4.5" fill="#C4C4C4"/>
<rect x="87" y="59" width="8" height="9" rx="4" fill="#C4C4C4" fill-opacity="0.2"/>
<ellipse cx="91" cy="63.5" rx="4" ry="4.5" fill="#C4C4C4"/>
<rect x="68" y="59" width="8" height="9" rx="4" fill="#C4C4C4" fill-opacity="0.2"/>
<ellipse cx="72" cy="63.5" rx="4" ry="4.5" fill="#C4C4C4"/>
<rect x="106" y="78" width="8" height="9" rx="4" fill="#C4C4C4" fill-opacity="0.2"/>
<ellipse cx="110" cy="82.5" rx="4" ry="4.5" fill="#C4C4C4"/>
<rect x="106" y="78" width="8" height="9" rx="4" fill="#C4C4C4" fill-opacity="0.2"/>
<ellipse cx="110" cy="82.5" rx="4" ry="4.5" fill="#C4C4C4"/>
<rect x="87" y="78" width="8" height="9" rx="4" fill="#C4C4C4" fill-opacity="0.2"/>
<ellipse cx="91" cy="82.5" rx="4" ry="4.5" fill="#C4C4C4"/>
<rect x="68" y="78" width="8" height="9" rx="4" fill="#C4C4C4" fill-opacity="0.2"/>
<ellipse cx="72" cy="82.5" rx="4" ry="4.5" fill="#C4C4C4"/>
<rect x="106" y="96" width="8" height="9" rx="4" fill="#C4C4C4" fill-opacity="0.2"/>
<ellipse cx="110" cy="100.5" rx="4" ry="4.5" fill="#C4C4C4"/>
<rect x="106" y="96" width="8" height="9" rx="4" fill="#C4C4C4" fill-opacity="0.2"/>
<ellipse cx="110" cy="100.5" rx="4" ry="4.5" fill="#C4C4C4"/>
<rect x="87" y="96" width="8" height="9" rx="4" fill="#C4C4C4" fill-opacity="0.2"/>
<ellipse cx="91" cy="100.5" rx="4" ry="4.5" fill="#C4C4C4"/>
<rect x="68" y="96" width="8" height="9" rx="4" fill="#C4C4C4" fill-opacity="0.2"/>
<ellipse cx="72" cy="100.5" rx="4" ry="4.5" fill="#C4C4C4"/>
<rect x="106" y="115" width="8" height="9" rx="4" fill="#C4C4C4" fill-opacity="0.2"/>
<ellipse cx="110" cy="119.5" rx="4" ry="4.5" fill="#C4C4C4"/>
<rect x="106" y="115" width="8" height="9" rx="4" fill="#C4C4C4" fill-opacity="0.2"/>
<ellipse cx="110" cy="119.5" rx="4" ry="4.5" fill="#C4C4C4"/>
<rect x="87" y="115" width="8" height="9" rx="4" fill="#C4C4C4" fill-opacity="0.2"/>
<ellipse cx="91" cy="119.5" rx="4" ry="4.5" fill="#C4C4C4"/>
<rect x="68" y="115" width="8" height="9" rx="4" fill="#C4C4C4" fill-opacity="0.2"/>
<ellipse cx="72" cy="119.5" rx="4" ry="4.5" fill="#C4C4C4"/>
<rect x="106" y="134" width="8" height="9" rx="4" fill="#C4C4C4" fill-opacity="0.2"/>
<ellipse cx="110" cy="138.5" rx="4" ry="4.5" fill="#C4C4C4"/>
<rect x="106" y="134" width="8" height="9" rx="4" fill="#C4C4C4" fill-opacity="0.2"/>
<ellipse cx="110" cy="138.5" rx="4" ry="4.5" fill="#C4C4C4"/>
<rect x="87" y="134" width="8" height="9" rx="4" fill="#C4C4C4" fill-opacity="0.2"/>
<ellipse cx="91" cy="138.5" rx="4" ry="4.5" fill="#C4C4C4"/>
<rect x="68" y="134" width="8" height="9" rx="4" fill="#C4C4C4" fill-opacity="0.2"/>
<ellipse cx="72" cy="138.5" rx="4" ry="4.5" fill="#C4C4C4"/>
<rect x="106" y="153" width="8" height="9" rx="4" fill="#C4C4C4" fill-opacity="0.2"/>
<ellipse cx="110" cy="157.5" rx="4" ry="4.5" fill="#C4C4C4"/>
<rect x="106" y="153" width="8" height="9" rx="4" fill="#C4C4C4" fill-opacity="0.2"/>
<ellipse cx="110" cy="157.5" rx="4" ry="4.5" fill="#C4C4C4"/>
<rect x="87" y="153" width="8" height="9" rx="4" fill="#C4C4C4" fill-opacity="0.2"/>
<ellipse cx="91" cy="157.5" rx="4" ry="4.5" fill="#C4C4C4"/>
<rect x="68" y="153" width="8" height="9" rx="4" fill="#C4C4C4" fill-opacity="0.2"/>
<ellipse cx="72" cy="157.5" rx="4" ry="4.5" fill="#C4C4C4"/>
</g>
<g filter="url(#filter1_f_8_208)">
<rect x="925" y="440" width="8" height="9" rx="4" fill="#C4C4C4" fill-opacity="0.2"/>
<ellipse cx="929" cy="444.5" rx="4" ry="4.5" fill="#C4C4C4"/>
<rect x="925" y="440" width="8" height="9" rx="4" fill="#C4C4C4" fill-opacity="0.2"/>
<ellipse cx="929" cy="444.5" rx="4" ry="4.5" fill="#C4C4C4"/>
<rect x="906" y="440" width="8" height="9" rx="4" fill="#C4C4C4" fill-opacity="0.2"/>
<ellipse cx="910" cy="444.5" rx="4" ry="4.5" fill="#C4C4C4"/>
<rect x="887" y="440" width="8" height="9" rx="4" fill="#C4C4C4" fill-opacity="0.2"/>
<ellipse cx="891" cy="444.5" rx="4" ry="4.5" fill="#C4C4C4"/>
<rect x="925" y="459" width="8" height="9" rx="4" fill="#C4C4C4" fill-opacity="0.2"/>
<ellipse cx="929" cy="463.5" rx="4" ry="4.5" fill="#C4C4C4"/>
<rect x="925" y="459" width="8" height="9" rx="4" fill="#C4C4C4" fill-opacity="0.2"/>
<ellipse cx="929" cy="463.5" rx="4" ry="4.5" fill="#C4C4C4"/>
<rect x="906" y="459" width="8" height="9" rx="4" fill="#C4C4C4" fill-opacity="0.2"/>
<ellipse cx="910" cy="463.5" rx="4" ry="4.5" fill="#C4C4C4"/>
<rect x="887" y="459" width="8" height="9" rx="4" fill="#C4C4C4" fill-opacity="0.2"/>
<ellipse cx="891" cy="463.5" rx="4" ry="4.5" fill="#C4C4C4"/>
<rect x="925" y="477" width="8" height="9" rx="4" fill="#C4C4C4" fill-opacity="0.2"/>
<ellipse cx="929" cy="481.5" rx="4" ry="4.5" fill="#C4C4C4"/>
<rect x="925" y="477" width="8" height="9" rx="4" fill="#C4C4C4" fill-opacity="0.2"/>
<ellipse cx="929" cy="481.5" rx="4" ry="4.5" fill="#C4C4C4"/>
<rect x="906" y="477" width="8" height="9" rx="4" fill="#C4C4C4" fill-opacity="0.2"/>
<ellipse cx="910" cy="481.5" rx="4" ry="4.5" fill="#C4C4C4"/>
<rect x="887" y="477" width="8" height="9" rx="4" fill="#C4C4C4" fill-opacity="0.2"/>
<ellipse cx="891" cy="481.5" rx="4" ry="4.5" fill="#C4C4C4"/>
<rect x="925" y="496" width="8" height="9" rx="4" fill="#C4C4C4" fill-opacity="0.2"/>
<ellipse cx="929" cy="500.5" rx="4" ry="4.5" fill="#C4C4C4"/>
<rect x="925" y="496" width="8" height="9" rx="4" fill="#C4C4C4" fill-opacity="0.2"/>
<ellipse cx="929" cy="500.5" rx="4" ry="4.5" fill="#C4C4C4"/>
<rect x="906" y="496" width="8" height="9" rx="4" fill="#C4C4C4"/>
<ellipse cx="910" cy="500.5" rx="4" ry="4.5" fill="#C4C4C4" fill-opacity="0.5"/>
<rect x="887" y="496" width="8" height="9" rx="4" fill="#C4C4C4" fill-opacity="0.2"/>
<ellipse cx="891" cy="500.5" rx="4" ry="4.5" fill="#C4C4C4"/>
<rect x="925" y="515" width="8" height="9" rx="4" fill="#C4C4C4" fill-opacity="0.2"/>
<ellipse cx="929" cy="519.5" rx="4" ry="4.5" fill="#C4C4C4"/>
<rect x="925" y="515" width="8" height="9" rx="4" fill="#C4C4C4" fill-opacity="0.2"/>
<ellipse cx="929" cy="519.5" rx="4" ry="4.5" fill="#C4C4C4"/>
<rect x="906" y="515" width="8" height="9" rx="4" fill="#C4C4C4"/>
<ellipse cx="910" cy="519.5" rx="4" ry="4.5" fill="#C4C4C4"/>
<rect x="887" y="515" width="8" height="9" rx="4" fill="#C4C4C4" fill-opacity="0.2"/>
<ellipse cx="891" cy="519.5" rx="4" ry="4.5" fill="#C4C4C4"/>
<rect x="925" y="534" width="8" height="9" rx="4" fill="#C4C4C4" fill-opacity="0.2"/>
<ellipse cx="929" cy="538.5" rx="4" ry="4.5" fill="#C4C4C4"/>
<rect x="925" y="534" width="8" height="9" rx="4" fill="#C4C4C4" fill-opacity="0.2"/>
<ellipse cx="929" cy="538.5" rx="4" ry="4.5" fill="#C4C4C4"/>
<rect x="906" y="534" width="8" height="9" rx="4" fill="#C4C4C4" fill-opacity="0.2"/>
<ellipse cx="910" cy="538.5" rx="4" ry="4.5" fill="#C4C4C4"/>
<rect x="887" y="534" width="8" height="9" rx="4" fill="#C4C4C4" fill-opacity="0.2"/>
<ellipse cx="891" cy="538.5" rx="4" ry="4.5" fill="#C4C4C4"/>
</g>
<defs>
<filter id="filter0_f_8_208" x="66" y="51" width="50" height="113" filterUnits="userSpaceOnUse" color-interpolation-filters="sRGB">
<feFlood flood-opacity="0" result="BackgroundImageFix"/>
<feBlend mode="normal" in="SourceGraphic" in2="BackgroundImageFix" result="shape"/>
<feGaussianBlur stdDeviation="1" result="effect1_foregroundBlur_8_208"/>
</filter>
<filter id="filter1_f_8_208" x="885" y="432" width="50" height="113" filterUnits="userSpaceOnUse" color-interpolation-filters="sRGB">
<feFlood flood-opacity="0" result="BackgroundImageFix"/>
<feBlend mode="normal" in="SourceGraphic" in2="BackgroundImageFix" result="shape"/>
<feGaussianBlur stdDeviation="1" result="effect1_foregroundBlur_8_208"/>
</filter>
<linearGradient id="paint0_linear_8_208" x1="292.5" y1="366" x2="292.5" y2="457" gradientUnits="userSpaceOnUse">
<stop stop-color="#313638" stop-opacity="0"/>
<stop offset="1" stop-color="#C4C4C4"/>
</linearGradient>
<linearGradient id="paint1_linear_8_208" x1="166.5" y1="420" x2="166.5" y2="511" gradientUnits="userSpaceOnUse">
<stop stop-color="#313638" stop-opacity="0"/>
<stop offset="1" stop-color="#C4C4C4"/>
</linearGradient>
<linearGradient id="paint2_linear_8_208" x1="247" y1="503" x2="247" y2="543" gradientUnits="userSpaceOnUse">
<stop stop-color="#C4C4C4" stop-opacity="0"/>
<stop offset="0.0001" stop-color="#313638" stop-opacity="0"/>
<stop offset="1" stop-color="#C4C4C4"/>
</linearGradient>
</defs>
</svg>
