<svg width="26" height="26" viewBox="0 0 26 26" fill="none" xmlns="http://www.w3.org/2000/svg">
<g clip-path="url(#clip0_14_296)">
<path d="M26 5.91175V20.9798C26 21.9592 25.207 22.7522 24.2277 22.7522H20.0904V12.7075L13 18.0267L5.90958 12.7075V22.7532H1.77233C1.5395 22.7532 1.30894 22.7074 1.09384 22.6182C0.878741 22.5291 0.683312 22.3985 0.518722 22.2338C0.354131 22.0691 0.223605 21.8736 0.1346 21.6584C0.0455958 21.4432 -0.00014199 21.2127 3.31122e-07 20.9798V5.91175C3.31122e-07 3.72016 2.50142 2.46891 4.25425 3.78408L5.90958 5.02666L13 10.3437L20.0904 5.0245L21.7458 3.78408C23.4975 2.47 26 3.72016 26 5.91175Z" fill="#FFEA11"/>
</g>
<defs>
<clipPath id="clip0_14_296">
<rect width="26" height="26" fill="white"/>
</clipPath>
</defs>
</svg>
