<svg width="32" height="32" viewBox="0 0 32 32" fill="none" xmlns="http://www.w3.org/2000/svg">
<path d="M2.6721 29.3333L4.47477 22.7093C3.28695 20.6731 2.66289 18.3573 2.66677 16C2.66677 8.63599 8.6361 2.66666 16.0001 2.66666C23.3641 2.66666 29.3334 8.63599 29.3334 16C29.3334 23.364 23.3641 29.3333 16.0001 29.3333C13.6438 29.3371 11.329 28.7136 9.29343 27.5267L2.6721 29.3333ZM11.1881 9.74399C11.0159 9.75468 10.8477 9.80003 10.6934 9.87732C10.5488 9.95923 10.4168 10.0616 10.3014 10.1813C10.1414 10.332 10.0508 10.4627 9.95343 10.5893C9.46065 11.2307 9.19558 12.0179 9.2001 12.8267C9.20277 13.48 9.37343 14.116 9.6401 14.7107C10.1854 15.9133 11.0828 17.1867 12.2681 18.3667C12.5534 18.6507 12.8321 18.936 13.1321 19.2013C14.6033 20.4966 16.3564 21.4307 18.2521 21.9293L19.0108 22.0453C19.2574 22.0587 19.5041 22.04 19.7521 22.028C20.1404 22.0079 20.5196 21.9028 20.8628 21.72C21.0374 21.6301 21.2078 21.5322 21.3734 21.4267C21.3734 21.4267 21.4308 21.3893 21.5401 21.3067C21.7201 21.1733 21.8308 21.0787 21.9801 20.9227C22.0908 20.808 22.1868 20.6733 22.2601 20.52C22.3641 20.3027 22.4681 19.888 22.5108 19.5427C22.5428 19.2787 22.5334 19.1347 22.5294 19.0453C22.5241 18.9027 22.4054 18.7547 22.2761 18.692L21.5001 18.344C21.5001 18.344 20.3401 17.8387 19.6321 17.516C19.5575 17.4835 19.4775 17.4649 19.3961 17.4613C19.3049 17.452 19.2127 17.4622 19.1258 17.4914C19.0388 17.5206 18.9592 17.5681 18.8921 17.6307V17.628C18.8854 17.628 18.7961 17.704 17.8321 18.872C17.7768 18.9463 17.7006 19.0025 17.6132 19.0334C17.5258 19.0643 17.4312 19.0684 17.3414 19.0453C17.2546 19.0221 17.1695 18.9927 17.0868 18.9573C16.9214 18.888 16.8641 18.8613 16.7508 18.812L16.7441 18.8093C15.9813 18.4763 15.2751 18.0265 14.6508 17.476C14.4828 17.3293 14.3268 17.1693 14.1668 17.0147C13.6422 16.5123 13.1851 15.944 12.8068 15.324L12.7281 15.1973C12.6716 15.1122 12.6259 15.0204 12.5921 14.924C12.5414 14.728 12.6734 14.5707 12.6734 14.5707C12.6734 14.5707 12.9974 14.216 13.1481 14.024C13.2736 13.8644 13.3906 13.6984 13.4988 13.5267C13.6561 13.2733 13.7054 13.0133 13.6228 12.812C13.2494 11.9 12.8628 10.992 12.4654 10.0907C12.3868 9.91199 12.1534 9.78399 11.9414 9.75866C11.8694 9.75066 11.7974 9.74266 11.7254 9.73732C11.5464 9.72843 11.3669 9.73154 11.1881 9.74399Z" fill="#FFEA11"/>
</svg>
